<svg id="visual" viewBox="0 0 900 600" width="900" height="600" xmlns="http://www.w3.org/2000/svg" xmlns:xlink="http://www.w3.org/1999/xlink" version="1.1"><rect x="0" y="0" width="900" height="600" fill="#CCCCCC"></rect><g fill="none" stroke="#29a657" stroke-width="4"><path d="M20.2 11.7L20.2 52.2L-20.2 52.2L-20.2 11.7L-55.3 -8.6L-35.1 -43.6L0 -23.4L35.1 -43.6L55.3 -8.6Z" transform="translate(641 388)"></path><path d="M8.9 5.1L8.9 23L-8.9 23L-8.9 5.1L-24.3 -3.8L-15.4 -19.2L0 -10.3L15.4 -19.2L24.3 -3.8Z" transform="translate(10 229)"></path><path d="M14.8 8.6L14.8 38.3L-14.8 38.3L-14.8 8.6L-40.5 -6.3L-25.7 -32L0 -17.1L25.7 -32L40.5 -6.3Z" transform="translate(653 561)"></path><path d="M17 9.8L17 43.8L-17 43.8L-17 9.8L-46.4 -7.2L-29.4 -36.6L0 -19.6L29.4 -36.6L46.4 -7.2Z" transform="translate(194 308)"></path><path d="M18.1 10.4L18.1 46.6L-18.1 46.6L-18.1 10.4L-49.4 -7.6L-31.3 -39L0 -20.9L31.3 -39L49.4 -7.6Z" transform="translate(875 596)"></path><path d="M18.6 10.8L18.6 48L-18.6 48L-18.6 10.8L-50.9 -7.9L-32.3 -40.1L0 -21.5L32.3 -40.1L50.9 -7.9Z" transform="translate(433 148)"></path><path d="M14.3 8.3L14.3 36.9L-14.3 36.9L-14.3 8.3L-39.1 -6L-24.8 -30.8L0 -16.5L24.8 -30.8L39.1 -6Z" transform="translate(788 323)"></path><path d="M14.8 8.6L14.8 38.3L-14.8 38.3L-14.8 8.6L-40.5 -6.3L-25.7 -32L0 -17.1L25.7 -32L40.5 -6.3Z" transform="translate(274 151)"></path><path d="M13 7.5L13 33.4L-13 33.4L-13 7.5L-35.4 -5.5L-22.4 -27.9L0 -15L22.4 -27.9L35.4 -5.5Z" transform="translate(485 474)"></path></g></svg>