<svg id="visual" viewBox="0 0 960 540" width="960" height="540" xmlns="http://www.w3.org/2000/svg" xmlns:xlink="http://www.w3.org/1999/xlink" version="1.1"><path d="M0 179L87 179L87 147L175 147L175 212L262 212L262 217L349 217L349 179L436 179L436 168L524 168L524 125L611 125L611 201L698 201L698 244L785 244L785 190L873 190L873 168L960 168L960 222L960 0L960 0L873 0L873 0L785 0L785 0L698 0L698 0L611 0L611 0L524 0L524 0L436 0L436 0L349 0L349 0L262 0L262 0L175 0L175 0L87 0L87 0L0 0Z" fill="#cccccc"></path><path d="M0 320L87 320L87 379L175 379L175 401L262 401L262 352L349 352L349 341L436 341L436 325L524 325L524 320L611 320L611 314L698 314L698 368L785 368L785 341L873 341L873 352L960 352L960 363L960 220L960 166L873 166L873 188L785 188L785 242L698 242L698 199L611 199L611 123L524 123L524 166L436 166L436 177L349 177L349 215L262 215L262 210L175 210L175 145L87 145L87 177L0 177Z" fill="#9cba98"></path><path d="M0 476L87 476L87 471L175 471L175 465L262 465L262 444L349 444L349 471L436 471L436 428L524 428L524 422L611 422L611 455L698 455L698 428L785 428L785 465L873 465L873 455L960 455L960 428L960 361L960 350L873 350L873 339L785 339L785 366L698 366L698 312L611 312L611 318L524 318L524 323L436 323L436 339L349 339L349 350L262 350L262 399L175 399L175 377L87 377L87 318L0 318Z" fill="#6ba666"></path><path d="M0 541L87 541L87 541L175 541L175 541L262 541L262 541L349 541L349 541L436 541L436 541L524 541L524 541L611 541L611 541L698 541L698 541L785 541L785 541L873 541L873 541L960 541L960 541L960 426L960 453L873 453L873 463L785 463L785 426L698 426L698 453L611 453L611 420L524 420L524 426L436 426L436 469L349 469L349 442L262 442L262 463L175 463L175 469L87 469L87 474L0 474Z" fill="#2c9232"></path></svg>